<svg width="250" height="250" viewBox="0 0 250 250" fill="none" xmlns="http://www.w3.org/2000/svg">
<rect width="250" height="250" rx="27" fill="#020617"/>
<path d="M69.1234 59.8C70.7234 59.8 72.3901 60.2 74.1234 61C75.8568 61.8 77.1901 62.9333 78.1234 64.4L128.923 141.8L120.323 141.4L172.123 64.4C174.257 61.3333 176.99 59.8 180.323 59.8C182.99 59.8 185.323 60.8 187.323 62.8C189.457 64.6667 190.523 67.0667 190.523 70V189.8C190.523 192.733 189.59 195.2 187.723 197.2C185.857 199.067 183.39 200 180.323 200C177.123 200 174.523 199.067 172.523 197.2C170.657 195.2 169.723 192.733 169.723 189.8V88.4L176.123 89.8L132.123 156.8C131.19 158 129.99 159.067 128.523 160C127.057 160.8 125.523 161.133 123.923 161C122.457 161.133 120.923 160.8 119.323 160C117.857 159.067 116.657 158 115.723 156.8L73.3234 90.8L78.1234 82.8V189.8C78.1234 192.733 77.1901 195.2 75.3234 197.2C73.5901 199.067 71.2568 200 68.3234 200C65.5234 200 63.1901 199.067 61.3234 197.2C59.5901 195.2 58.7234 192.733 58.7234 189.8V70C58.7234 67.2 59.7234 64.8 61.7234 62.8C63.8568 60.8 66.3234 59.8 69.1234 59.8Z" fill="#9999FF"/>
</svg>
