<svg width="117" height="64" viewBox="0 0 117 64" fill="none" xmlns="http://www.w3.org/2000/svg" class="name-svg">
<path d="M42.9347 4.62552C40.8311 3.95234 38.2269 4.28087 36.055 4.31281C31.6719 4.37726 27.2395 4.95248 23.1642 6.64079C17.9172 8.81457 13.1543 12.2385 9.43956 16.5434C3.78477 23.0966 2.48608 33.7324 5.79123 41.6648C9.75207 51.1708 18.8712 55.6759 28.5499 57.7175C35.1167 59.1026 41.741 60.7718 47.6255 56.8488" stroke="#F48284" stroke-width="8" stroke-linecap="round"/>
<path d="M58.8833 4C59.01 5.9001 59.7301 7.67193 60.5164 9.38564C62.3798 13.4471 64.4972 17.3625 66.5969 21.3035C69.669 27.0695 72.3483 32.9847 75.2139 38.8503C77.4804 43.4894 79.4963 48.2297 82.0068 52.7487C82.458 53.5609 83.812 57.3391 84.8386 57.5958C85.3996 57.736 88.9699 49.725 89.3903 48.8919C92.2494 43.2257 95.2859 37.717 97.99 31.9532C102.298 22.771 107.528 13.9708 112.045 4.93814" stroke="#F48284" stroke-width="8" stroke-linecap="round"/>
</svg>
